<svg width="103" height="103" viewBox="0 0 103 103" fill="none" xmlns="http://www.w3.org/2000/svg">
<g clip-path="url(#clip0_305_3907)">
<rect width="103" height="103" fill="#1616DA"/>
<path d="M39.9428 47.9757L32.8212 35.0167L71.0635 14.0009L78.3287 27.2214C80.4152 31.0182 81.442 34.7005 81.409 38.2682C81.3953 41.8415 80.3667 45.146 78.3232 48.1815C76.2797 51.217 73.2724 53.826 69.3013 56.0083C65.3177 58.1974 61.4873 59.338 57.81 59.4301C54.1396 59.5346 50.776 58.6195 47.7192 56.6849C44.6693 54.7628 42.0772 51.8597 39.9428 47.9757ZM42.6223 38.6504L45.7521 44.3456C47.2161 47.0096 48.9227 48.9649 50.872 50.2115C52.8337 51.4512 55.0318 51.9856 57.4664 51.8147C59.9133 51.637 62.5996 50.7443 65.525 49.1366C68.4504 47.529 70.6316 45.7468 72.0686 43.7901C73.5181 41.8266 74.2397 39.7039 74.2337 37.4218C74.247 35.1454 73.5421 32.7126 72.1192 30.1232L68.8765 24.2226L42.6223 38.6504ZM55.33 75.9758L51.2664 68.5813L96.9073 61.0288L101.607 69.581L70.7737 104.079L66.7101 96.6842L91.4966 69.7642L91.3325 69.4654L55.33 75.9758ZM70.4578 67.9785L81.5403 88.1454L75.9758 91.2033L64.8933 71.0365L70.4578 67.9785Z" fill="white"/>
<path d="M17.4515 37.8163L8.77105 42.4886L-5.01678 16.8726L3.83873 12.1061C6.38198 10.7372 8.8427 10.0741 11.2209 10.1169C13.6029 10.1467 15.7998 10.8517 17.8116 12.2316C19.8233 13.6115 21.5451 15.6314 22.9768 18.2914C24.413 20.9597 25.1512 23.5199 25.1912 25.9718C25.2395 28.4193 24.61 30.6563 23.3025 32.6828C22.0034 34.7048 20.0531 36.416 17.4515 37.8163ZM11.2504 35.9759L15.0652 33.9225C16.8497 32.962 18.1631 31.8357 19.0054 30.5435C19.8432 29.2429 20.2123 27.7807 20.1125 26.1567C20.0082 24.5244 19.4287 22.7285 18.374 20.7689C17.3192 18.8094 16.1438 17.3449 14.8478 16.3756C13.5472 15.3979 12.1363 14.9045 10.615 14.8953C9.09751 14.8732 7.47156 15.329 5.73715 16.2625L1.78469 18.3899L11.2504 35.9759ZM36.2069 27.7212L31.2538 30.3872L26.4841 -0.0827522L32.2126 -3.16616L55.0311 17.589L50.078 20.255L32.276 3.57495L32.0759 3.68267L36.2069 27.7212ZM30.9634 17.5899L44.4718 10.319L46.4781 14.0463L32.9697 21.3173L30.9634 17.5899Z" fill="white"/>
</g>
<defs>
<clipPath id="clip0_305_3907">
<rect width="103" height="103" fill="white"/>
</clipPath>
</defs>
</svg>
